<svg id="logo" xmlns="http://www.w3.org/2000/svg" width="131.195" height="87.001" viewBox="0 0 131.195 87.001">
  <g id="レイヤー_2" data-name="レイヤー 2" transform="translate(-612.995 30.001)">
    <g id="レイヤー_1" data-name="レイヤー 1" transform="translate(612.995 -30.001)">
      <g id="レイヤー_2-2" data-name="レイヤー 2" transform="translate(0 0)">
        <g id="レイヤー_1-2" data-name="レイヤー 1">
          <g id="レイヤー_2-2-2" data-name="レイヤー 2-2">
            <path id="パス_817" data-name="パス 817" d="M22.164,34.172a2.378,2.378,0,0,1,.809.4,3.089,3.089,0,0,1-.37,4.72,7.552,7.552,0,0,0-1.348,1.413,13.313,13.313,0,0,1-3.525,3.243,2.811,2.811,0,0,0-.9,1.111,16,16,0,0,0,4.76-2.663,9.486,9.486,0,0,1,3.851-2.524,1.251,1.251,0,0,1,1.643.631.729.729,0,0,1,.069.2,5.351,5.351,0,0,1-.1,2.814,3.266,3.266,0,0,1-1.562,2.044,41.07,41.07,0,0,0-4.077,3.54c-2.164,2.12-4.271,4.284-6.372,6.442-.05.05-.05.158-.119.4,3.368-1.325,6.134-3.521,9.314-5.048-.3-.631-.627-1.262.364-1.489a8.031,8.031,0,0,0,1.355-.631A4.929,4.929,0,0,1,32.168,50.9a2.4,2.4,0,0,1,.295,1.155c0,1.4-.151,2.8-.213,4.2a1.045,1.045,0,0,1-.96,1.117h-.044c-1.135.088-2.283.158-3.424.139-.985,0-1.192-.341-1.066-1.344.044-.347.232-.681.245-1.022a9.172,9.172,0,0,0-.107-1.376c-3.136,1.893-6.146,3.786-9.263,5.471a22.851,22.851,0,0,1-4.967,1.647A2.03,2.03,0,0,1,10.154,59.5v-.17c-.433-1.622-.74-3.224.8-4.587A18.824,18.824,0,0,0,13.1,52.1a4.874,4.874,0,0,0,.433-.8,11.636,11.636,0,0,0-4.39,1.205,1.618,1.618,0,0,1-2.258-.454h0a1.784,1.784,0,0,1-.2-.429c-.339-1.489-.552-2.928.8-4.278,2.985-2.984,5.789-6.146,8.686-9.212.552-.58,1.2-1.073,1.787-1.615.27-.246.508-.53.815-.846-.251-.088-.37-.17-.426-.139-1.825.978-3.619,1.931-5.387,2.972a5.073,5.073,0,0,1-5.206.233c-.577-.3-1.185-.536-1.787-.776a5.68,5.68,0,0,1-3.7-5.679,3.143,3.143,0,0,1,3.675.8,1.667,1.667,0,0,0,2.026.29c1.254-.562,2.509-1.2,3.832-1.729,2.264-.915,4.522-1.842,6.83-2.644,2.509-.871,5.017-1.6,7.583-2.379,2.678-.827,5.35-1.685,8.047-2.454,3.305-.946,6.629-1.931,9.991-2.688,4.052-.915,8.153-1.628,12.23-2.391a12.623,12.623,0,0,1,7.238.713,8.039,8.039,0,0,1,1.844,1.035c1.38,1.01,1.317,1.836.345,3.3-1.3,1.943-2.885,2.271-4.911,1.42a2.957,2.957,0,0,0-.853-.158c-2.132-.246-4.259-.5-6.391-.707a4.5,4.5,0,0,0-1.48.126c-2.666.675-5.331,1.35-7.978,2.095-2.8.782-5.569,1.641-8.348,2.486q-4.39,1.344-8.78,2.719c-1.6.511-3.18,1.079-4.767,1.615Z" transform="translate(-0.829 -6.958)" fill="#f0c419"/>
            <path id="パス_818" data-name="パス 818" d="M19.68,86.108c1.413-1.628,3.117-1.735,4.751-1.893a25.385,25.385,0,0,1,3.918,0A4.568,4.568,0,0,1,31.4,85.332a3.237,3.237,0,0,1,1.1,2.688,18.077,18.077,0,0,0,.946,7.124,24.249,24.249,0,0,0,.814,2.732c1.3,2.694,3.685,3.956,6.442,4.493,1.817.372,3.685.543,5.54.738,4.1.435,8.2.946,12.3,1.2,2.9.183,5.83,0,8.745-.057a9.243,9.243,0,0,0,1.262-.215,2.524,2.524,0,0,0-1.71-1.262c-.846-.3-1.647-.726-2.473-1.085-.631-.278-1.293-.524-1.924-.827-2.436-1.186-5.086-1.956-7.281-3.609A13.635,13.635,0,0,1,53.658,95.8a2.11,2.11,0,0,0-3.041-.473,15.282,15.282,0,0,0-1.83,1.3,3.477,3.477,0,0,1-4.3.284A22.412,22.412,0,0,1,38.432,91.3c-.719-.953-1.514-1.836-2.2-2.833a2.953,2.953,0,0,1-.631-2.385c2.215-.2,5.376,2.07,7.313,5.243A7.912,7.912,0,0,0,45.9,90.109c4.063-2.341,8.354-4.209,12.582-6.2A43.437,43.437,0,0,1,65.7,81.237c2.391-.631,4.48.246,6.4,1.5a5.044,5.044,0,0,1,1.262,1.8c.107.183.151.587.038.694-1.01.94-1.155,2.347-2.019,3.42a23.977,23.977,0,0,1-4.726,4.1,2.164,2.164,0,0,1-1.577.088,12.828,12.828,0,0,1-3.66-1.767l1.716-2.158a48.579,48.579,0,0,0-9.982,5.161,3.117,3.117,0,0,0,.53.334c1.893.631,3.868,1.155,5.742,1.893,1.773.688,3.458,1.615,5.212,2.366a26.5,26.5,0,0,0,3.546,1.262c2.12.555,3.7,1.962,5.395,3.212.719.536,1.413,1.111,2.095,1.7a8.833,8.833,0,0,1,1.628,1.533c.751,1.079.24,2.076-1.066,2.284a2.419,2.419,0,0,1-.3,0c-2.757.208-5.515.543-8.278.587q-7.1.1-14.191-.107a32.436,32.436,0,0,0-6.777,0,3.628,3.628,0,0,1-3.111-.89,5.824,5.824,0,0,0-1.994-.978c-5.679-1.779-10.645-4.518-14.045-9.584a34.7,34.7,0,0,1-3.325-7.212,8.633,8.633,0,0,1-.4-1.136,1.735,1.735,0,0,0-1.06-1.148,34.231,34.231,0,0,1-3.073-2.082Z" transform="translate(-7.649 -30.36)" fill="#f0c419"/>
            <path id="パス_819" data-name="パス 819" d="M57.234,46.756c-1.376.069-2.619.177-3.862.183-1.893,0-2.82-1.174-2.524-3.048a6.309,6.309,0,0,0,.12-1.193,1.893,1.893,0,0,1,1.066-1.786q4.057-2.593,7.957-5.439a17.2,17.2,0,0,1,5.679-2.707,2.827,2.827,0,0,1,2.789.738c.991.946.77,2.177-.454,3.06-1.773,1.262-3.54,2.581-5.553,4.051.738.063,1.262.126,1.767.158a2.366,2.366,0,0,1,2.29,1.174,2.713,2.713,0,0,1-.442,2.7c-1.262,1.792-2.391,3.622-3.533,5.464a8.669,8.669,0,0,0-.631,1.47l.233.246c.631-.4,1.325-.789,1.969-1.2,1.022-.631,1.994-1.369,3.048-1.95.782-.435,1.609-.738,1.262-1.893,1.489-.416,2.776-.864,4.1-1.117a4.2,4.2,0,0,1,3.445.719,1.5,1.5,0,0,1,.568,2.044v.032a.12.12,0,0,1,0,.063,8.329,8.329,0,0,0-.827,3.483,4.02,4.02,0,0,1-2.694,3.969c-1.022.372-1.458.4-2.057-.442a6.057,6.057,0,0,1-.631-1.5A13.678,13.678,0,0,1,70,52.611c-.978.864-1.767,1.6-2.6,2.278a9.68,9.68,0,0,1-1.716,1.167A34.161,34.161,0,0,1,59.524,58.5c-2.41.631-3.95-.29-4.783-2.208a12.935,12.935,0,0,1-.782-2.751,2.4,2.4,0,0,1,.265-1.42c.789-1.464,1.659-2.877,2.524-4.31A9.633,9.633,0,0,1,57.234,46.756Z" transform="translate(-19.022 -12.218)" fill="#f0c419"/>
            <path id="パス_820" data-name="パス 820" d="M.976,109.392c2.568-1.325,4.354-.069,6.1,1.824a6.057,6.057,0,0,0,1.054-.713c1.167-1.18,2.3-2.4,3.432-3.609a6.738,6.738,0,0,0,.574-.833,4.94,4.94,0,0,1,1.458,3.565c0,2.631-1.666,4.694-2.208,7.117-.991.978-1.344,2.335-2.057,3.47a3.786,3.786,0,0,1-5.18,1.35,4,4,0,0,1-.341-.227C.863,119.222-.74,116.919.326,112.8.591,111.7.743,110.527.976,109.392Z" transform="translate(0.005 -39.598)" fill="#f0c419"/>
            <path id="パス_821" data-name="パス 821" d="M49.69,13.622c2.884-3.615,6.65-5.982,9.66-9.206a5.761,5.761,0,0,1-1.2-.833,6.9,6.9,0,0,1-1.035-1.6c-.259-.574,0-1,.562-1.376A4.887,4.887,0,0,1,61.193.12a13.926,13.926,0,0,0,4.032,0A4.1,4.1,0,0,1,68.3.574c.707.467.934,1.117.372,1.622-.934.833-1.174,2.051-1.893,2.991-1.167,1.527-2.3,3.01-4.215,3.742A12.363,12.363,0,0,0,60.24,10.55c-.492.341-1,.663-1.5.978s-1.085.681-1.634,1.01a5.338,5.338,0,0,1-.915.5q-.959.385-1.95.681a4.063,4.063,0,0,1-1.2.164C52.012,13.812,50.965,13.711,49.69,13.622Z" transform="translate(-18.573 0.001)" fill="#f0c419"/>
            <path id="パス_822" data-name="パス 822" d="M31.388,8.676a11.357,11.357,0,0,1,1.735-.5,38.239,38.239,0,0,1,3.88-.3,1.18,1.18,0,0,1,.883.669c.069.246-.265.694-.524.94-1.83,1.71-3.7,3.395-5.54,5.1a2.688,2.688,0,0,1-2.947.145,4.758,4.758,0,0,1-1.413-1.319A11.7,11.7,0,0,1,25.57,7.925a2.1,2.1,0,0,1,3.262-2.006,9.237,9.237,0,0,1,1.8,1.811,8.562,8.562,0,0,1,.751.946Z" transform="translate(-9.535 -2.051)" fill="#f0c419"/>
          </g>
        </g>
      </g>
    </g>
  </g>
  <text id="Itsuku" transform="translate(76.195 81.001)" fill="#f0c419" font-size="20" font-family="YuMincho-Regular, Yu Mincho"><tspan x="0" y="0">Itsuku</tspan></text>
</svg>
